<svg id="Layer_1" data-name="Layer 1" xmlns="http://www.w3.org/2000/svg" viewBox="0 0 155 48"><defs><style>.cls-1{fill:#fff;}</style></defs><path class="cls-1" d="M55.86,27.74h-6l-1.4,3.79H46.62l5.49-14.22h1.57l5.4,14.22H57.23Zm-5.45-1.45h4.92l-2.44-6.74Z"/><path class="cls-1" d="M71.33,27a5.35,5.35,0,0,1-1.57,3.43,5.1,5.1,0,0,1-3.68,1.28,5,5,0,0,1-3.95-1.68,6.37,6.37,0,0,1-1.49-4.38V23.17a6.36,6.36,0,0,1,1.49-4.37,5,5,0,0,1,3.95-1.69,5.2,5.2,0,0,1,3.7,1.23,5.34,5.34,0,0,1,1.55,3.5H69.52a4.34,4.34,0,0,0-1-2.44,3.6,3.6,0,0,0-5.06.46,5.39,5.39,0,0,0-1,3.29v2.53a5.42,5.42,0,0,0,1,3.31,3.16,3.16,0,0,0,2.66,1.29,3.23,3.23,0,0,0,2.41-.8,4.25,4.25,0,0,0,1-2.45Z"/><path class="cls-1" d="M76.27,17.31,80.93,29,85.6,17.31h2.32V31.53H86.11V25.84l.19-6h0L81.53,31.53H80.32L75.59,19.89h0l.19,5.95v5.69H73.94V17.31Z"/><path class="cls-1" d="M99.85,24.91H93.29v5.17h7.56v1.45H91.48V17.31h9.27v1.47H93.29v4.67h6.56Z"/><path class="cls-1" d="M118.29,27a5.4,5.4,0,0,1-1.57,3.43A5.13,5.13,0,0,1,113,31.74a5,5,0,0,1-4-1.68,6.37,6.37,0,0,1-1.48-4.38V23.17a6.36,6.36,0,0,1,1.48-4.37,5,5,0,0,1,4-1.69,5.22,5.22,0,0,1,3.71,1.23,5.43,5.43,0,0,1,1.55,3.5h-1.81a4.34,4.34,0,0,0-1-2.44,3.22,3.22,0,0,0-2.41-.83,3.13,3.13,0,0,0-2.65,1.29,5.33,5.33,0,0,0-1,3.29v2.53a5.35,5.35,0,0,0,1,3.31A3.13,3.13,0,0,0,113,30.28a3.22,3.22,0,0,0,2.41-.8,4.25,4.25,0,0,0,1-2.45Z"/><path class="cls-1" d="M120.05,26.14a5.85,5.85,0,0,1,1.25-3.88,4.8,4.8,0,0,1,7,0,5.85,5.85,0,0,1,1.25,3.88v.24a5.74,5.74,0,0,1-1.25,3.87,4.82,4.82,0,0,1-7,0,5.79,5.79,0,0,1-1.25-3.87Zm1.82.24a5,5,0,0,0,.72,2.81,2.47,2.47,0,0,0,2.19,1.08A2.44,2.44,0,0,0,127,29.18a4.9,4.9,0,0,0,.73-2.8v-.24a4.94,4.94,0,0,0-.73-2.8,2.47,2.47,0,0,0-2.2-1.11,2.43,2.43,0,0,0-2.17,1.11,5,5,0,0,0-.72,2.8Z"/><path class="cls-1" d="M136.94,22.6l-1.06-.06a2.28,2.28,0,0,0-1.37.38,2.52,2.52,0,0,0-.83,1.09v7.52h-1.81V21h1.62l.17,1.54h0a3.5,3.5,0,0,1,1.11-1.28,2.64,2.64,0,0,1,1.56-.46,3.44,3.44,0,0,1,.46,0,2.55,2.55,0,0,1,.36.08Z"/><path class="cls-1" d="M147.78,26.64a5.94,5.94,0,0,1-1.07,3.72,3.62,3.62,0,0,1-3,1.37,4.22,4.22,0,0,1-1.74-.33,3.21,3.21,0,0,1-1.25-1h0V35.6h-1.82V21h1.55l.18,1.35a3.5,3.5,0,0,1,1.28-1.15,3.86,3.86,0,0,1,1.8-.39,3.5,3.5,0,0,1,3.06,1.53,7.12,7.12,0,0,1,1.07,4.13ZM146,26.43a5.71,5.71,0,0,0-.7-3,2.35,2.35,0,0,0-2.14-1.15,2.69,2.69,0,0,0-1.49.39,2.91,2.91,0,0,0-1,1.08v5.1a3,3,0,0,0,1,1.06,2.73,2.73,0,0,0,1.5.37,2.41,2.41,0,0,0,2.12-1,4.46,4.46,0,0,0,.7-2.64Z"/><polygon class="cls-1" points="20.88 38.5 13.62 33.66 14.18 32.83 20.88 37.3 27.59 32.83 28.14 33.66 20.88 38.5"/><polygon class="cls-1" points="32.44 24.26 31.44 24.26 31.44 19.21 25.34 15.15 25.9 14.32 32.44 18.68 32.44 24.26"/><polygon class="cls-1" points="10.32 24.33 9.32 24.33 9.32 18.68 15.87 14.32 16.42 15.15 10.32 19.21 10.32 24.33"/><path class="cls-1" d="M20.88,22.08l-5.24-3.21V12.7l5.24-3.2,5.24,3.2v6.17Zm-4.24-3.77,4.24,2.6,4.24-2.6v-5l-4.24-2.6-4.24,2.6Z"/><polygon class="cls-1" points="21.38 21.49 20.38 21.49 20.38 16.07 15.89 13.41 16.4 12.55 21.38 15.5 21.38 21.49"/><rect class="cls-1" x="20.5" y="13.89" width="5.51" height="1" transform="translate(-4.09 13.84) rotate(-30.6)"/><path class="cls-1" d="M29.31,34.71l-5.24-3.2V25.34l5.24-3.2,5.24,3.2v6.17ZM25.07,31l4.24,2.59L33.55,31V25.9l-4.24-2.59L25.07,25.9Z"/><polygon class="cls-1" points="29.81 34.13 28.81 34.13 28.81 28.71 24.31 26.05 24.82 25.19 29.81 28.14 29.81 34.13"/><rect class="cls-1" x="28.92" y="26.52" width="5.51" height="1" transform="translate(-9.34 19.88) rotate(-30.59)"/><path class="cls-1" d="M12.46,34.71l-5.24-3.2V25.34l5.24-3.2,5.24,3.2v6.17ZM8.22,31l4.24,2.59L16.7,31V25.9l-4.24-2.59L8.22,25.9Z"/><polygon class="cls-1" points="12.96 34.13 11.96 34.13 11.96 28.71 7.46 26.05 7.97 25.19 12.96 28.14 12.96 34.13"/><rect class="cls-1" x="12.07" y="26.52" width="5.51" height="1" transform="translate(-11.69 11.31) rotate(-30.59)"/></svg>